<?xml version="1.0" encoding="UTF-8" standalone="no"?>
<!-- Created with Inkscape (http://www.inkscape.org/) -->

<svg
   width="210mm"
   height="297mm"
   viewBox="0 0 210 297"
   version="1.1"
   id="svg259"
   xml:space="preserve"
   inkscape:version="1.2 (dc2aedaf03, 2022-05-15)"
   sodipodi:docname="identity-management-approach.svg"
   xmlns:inkscape="http://www.inkscape.org/namespaces/inkscape"
   xmlns:sodipodi="http://sodipodi.sourceforge.net/DTD/sodipodi-0.dtd"
   xmlns="http://www.w3.org/2000/svg"
   xmlns:svg="http://www.w3.org/2000/svg"><sodipodi:namedview
     id="namedview261"
     pagecolor="#ffffff"
     bordercolor="#999999"
     borderopacity="1"
     inkscape:showpageshadow="0"
     inkscape:pageopacity="0"
     inkscape:pagecheckerboard="0"
     inkscape:deskcolor="#d1d1d1"
     inkscape:document-units="mm"
     showgrid="false"
     inkscape:zoom="1.2578283"
     inkscape:cx="272.29471"
     inkscape:cy="245.6615"
     inkscape:window-width="1920"
     inkscape:window-height="1011"
     inkscape:window-x="0"
     inkscape:window-y="32"
     inkscape:window-maximized="1"
     inkscape:current-layer="layer1" /><defs
     id="defs256" /><g
     inkscape:label="Ebene 1"
     inkscape:groupmode="layer"
     id="layer1"><rect
       style="fill:#8df4a3;fill-opacity:1;stroke:#000000;stroke-width:0.812002;stroke-linecap:round;stroke-linejoin:round;stroke-miterlimit:4;stroke-dasharray:none;stroke-opacity:1"
       id="rect1881"
       width="25.054438"
       height="29.518019"
       x="57.463661"
       y="26.353355" /><rect
       style="fill:#8df4a3;fill-opacity:1;stroke:#000000;stroke-width:0.942307;stroke-linecap:round;stroke-linejoin:round;stroke-miterlimit:4;stroke-dasharray:none;stroke-opacity:1"
       id="rect1881-3"
       width="33.890427"
       height="29.387712"
       x="114.64182"
       y="29.064234" /><text
       xml:space="preserve"
       style="font-size:4.9389px;line-height:1.3;font-family:'PT Sans';-inkscape-font-specification:'PT Sans';text-align:center;letter-spacing:0px;word-spacing:0px;text-anchor:middle;stroke-width:0.264583"
       x="70.088707"
       y="46.347584"
       id="text321"><tspan
         sodipodi:role="line"
         id="tspan319"
         style="stroke-width:0.264583"
         x="70.088707"
         y="46.347584">X.509</tspan><tspan
         sodipodi:role="line"
         style="stroke-width:0.264583"
         x="70.088707"
         y="52.768154"
         id="tspan1879">Certificate</tspan></text><text
       xml:space="preserve"
       style="font-size:4.9389px;line-height:1.3;font-family:'PT Sans';-inkscape-font-specification:'PT Sans';text-align:center;letter-spacing:0px;word-spacing:0px;text-anchor:middle;stroke-width:0.264583"
       x="132.10582"
       y="52.235718"
       id="text379"><tspan
         sodipodi:role="line"
         id="tspan377"
         style="stroke-width:0.264583"
         x="132.10582"
         y="52.235718">Authority IRI</tspan></text><rect
       style="fill:#8df4a3;fill-opacity:1;stroke:#000000;stroke-width:1.18884;stroke-linecap:round;stroke-linejoin:round;stroke-miterlimit:4;stroke-dasharray:none;stroke-opacity:1"
       id="rect3956"
       width="38.898312"
       height="40.754364"
       x="157.98485"
       y="28.456587" /><text
       xml:space="preserve"
       style="font-size:4.9389px;line-height:1.3;font-family:'PT Sans';-inkscape-font-specification:'PT Sans';text-align:center;letter-spacing:0px;word-spacing:0px;text-anchor:middle;stroke-width:0.264583"
       x="177.27203"
       y="52.220844"
       id="text433"><tspan
         sodipodi:role="line"
         id="tspan431"
         style="stroke-width:0.264583"
         x="177.27203"
         y="52.220844">Entity</tspan><tspan
         sodipodi:role="line"
         style="stroke-width:0.264583"
         x="177.27203"
         y="58.641411"
         id="tspan435">(e.g., person or </tspan><tspan
         sodipodi:role="line"
         style="stroke-width:0.264583"
         x="177.27203"
         y="65.061981"
         id="tspan3927">organzation)</tspan></text><text
       xml:space="preserve"
       style="font-size:4.9389px;line-height:1.3;font-family:'PT Sans';-inkscape-font-specification:'PT Sans';text-align:end;letter-spacing:0px;word-spacing:0px;text-anchor:end;stroke-width:0.264583"
       x="55.822723"
       y="30.377304"
       id="text439"><tspan
         sodipodi:role="line"
         style="text-align:end;text-anchor:end;stroke-width:0.264583"
         x="55.822723"
         y="30.377304"
         id="tspan445">Subject</tspan><tspan
         sodipodi:role="line"
         style="text-align:end;text-anchor:end;stroke-width:0.264583"
         x="55.822723"
         y="36.797874"
         id="tspan449">Public</tspan><tspan
         sodipodi:role="line"
         style="text-align:end;text-anchor:end;stroke-width:0.264583"
         x="55.822723"
         y="43.218445"
         id="tspan3964">Key Info</tspan></text><text
       xml:space="preserve"
       style="font-size:4.9389px;line-height:1.3;font-family:'PT Sans';-inkscape-font-specification:'PT Sans';text-align:center;letter-spacing:0px;word-spacing:0px;text-anchor:middle;stroke-width:0.264583"
       x="92.999458"
       y="42.241268"
       id="text453"><tspan
         sodipodi:role="line"
         style="stroke-width:0.264583"
         x="92.999458"
         y="42.241268"
         id="tspan463">Subject</tspan></text><text
       xml:space="preserve"
       style="font-size:4.9389px;line-height:1.3;font-family:'PT Sans';-inkscape-font-specification:'PT Sans';text-align:center;letter-spacing:0px;word-spacing:0px;text-anchor:middle;stroke-width:0.264583"
       x="118.46165"
       y="50.374603"
       id="text461"><tspan
         sodipodi:role="line"
         id="tspan459"
         style="stroke-width:0.264583"
         x="119.12099"
         y="50.374603"> </tspan></text><rect
       style="fill:#8df4a3;fill-opacity:1;stroke:#000000;stroke-width:0.812;stroke-linecap:round;stroke-linejoin:round;stroke-miterlimit:4;stroke-dasharray:none;stroke-opacity:1"
       id="rect57796"
       width="24.913486"
       height="22.290628"
       x="8.5966587"
       y="28.017786" /><path
       id="rect51496"
       style="fill:#000000;fill-opacity:1;stroke:none;stroke-width:0.338863;stroke-linecap:round;stroke-linejoin:round;stroke-miterlimit:4;stroke-dasharray:none;stroke-opacity:1"
       d="m 17.527332,32.68606 a 3.125397,3.125397 0 0 0 -3.125307,3.125455 3.125397,3.125397 0 0 0 3.125307,3.125453 3.125397,3.125397 0 0 0 2.844699,-1.835347 h 1.931733 V 36.50332 h 0.715809 v 0.598301 h 0.954011 V 36.50332 h 0.715964 v 0.598301 h 0.953857 V 36.50332 h 0.715964 v 0.598301 h 0.459826 l 1.126083,-1.290106 -1.126083,-1.290107 h -6.44534 A 3.125397,3.125397 0 0 0 17.527332,32.68606 Z m -1.318527,2.293205 a 0.83218579,0.83218579 0 0 1 0.832098,0.83225 0.83218579,0.83218579 0 0 1 -0.832098,0.83225 0.83218579,0.83218579 0 0 1 -0.832252,-0.83225 0.83218579,0.83218579 0 0 1 0.832252,-0.83225 z" /><text
       xml:space="preserve"
       style="font-size:4.9389px;line-height:1.3;font-family:'PT Sans';-inkscape-font-specification:'PT Sans';text-align:center;letter-spacing:0px;word-spacing:0px;text-anchor:middle;stroke-width:0.264583"
       x="21.417976"
       y="45.701107"
       id="text317"><tspan
         sodipodi:role="line"
         id="tspan315"
         style="stroke-width:0.264583"
         x="21.417976"
         y="45.701107">Public key</tspan></text><g
       id="g1877"
       transform="matrix(0.19805896,0,0,0.19805896,51.750902,13.001478)"
       style="stroke-width:5.04899"><path
         style="fill:#ffffff;fill-opacity:1;stroke:none;stroke-width:1.33588px;stroke-linecap:butt;stroke-linejoin:miter;stroke-opacity:1"
         d="m 62.237341,136.86639 18.147967,0.0119 43.797242,-3.48891 -0.72531,-47.604278 -66.112436,-0.142108 -0.622654,45.492086 z"
         id="path1857"
         sodipodi:nodetypes="ccccccc" /><path
         style="color:#000000;fill:#000000;stroke-width:5.04899;stroke-linecap:round;stroke-linejoin:round"
         d="m 71.287109,113.58203 c -4.112165,0 -7.53125,3.31886 -7.53125,7.41211 0,4.09325 3.419085,7.41016 7.53125,7.41016 4.112165,0 7.53125,-3.31691 7.53125,-7.41016 0,-4.09325 -3.419085,-7.41211 -7.53125,-7.41211 z m 0,4 c 1.997469,0 3.53125,1.52873 3.53125,3.41211 0,1.88338 -1.533781,3.41016 -3.53125,3.41016 -1.997468,0 -3.53125,-1.52678 -3.53125,-3.41016 0,-1.88338 1.533782,-3.41211 3.53125,-3.41211 z"
         id="path976" /><path
         id="path1771"
         style="fill:#000000;fill-opacity:1;stroke:none;stroke-width:1.33588px;stroke-linecap:butt;stroke-linejoin:miter;stroke-opacity:1"
         d="m 65.086466,128.23713 -1.07642,14.57896 7.275525,-6.59753 7.275008,6.59753 -1.075903,-14.57586 c -1.688634,1.41168 -3.861434,2.26343 -6.197554,2.26343 -2.337666,0 -4.511546,-0.85318 -6.200656,-2.26653 z" /><path
         style="fill:#000000;stroke-width:5.04899"
         d="m 56.814676,136.56773 c -1.210487,-0.34909 -2.878145,-2.09534 -3.222571,-3.37445 -0.194982,-0.7241 -0.261623,-8.38679 -0.212394,-24.42177 l 0.07174,-23.366575 0.6279,-1.009999 c 0.345345,-0.555499 1.110556,-1.329405 1.700469,-1.719792 l 1.07257,-0.709793 h 33.48911 33.48912 l 1.01,0.6279 c 0.5555,0.345345 1.3294,1.110556 1.71979,1.700469 l 0.70979,1.07257 v 23.98343 23.98344 l -0.70979,1.07257 c -0.39039,0.58991 -1.16429,1.35513 -1.71979,1.70047 l -1.01,0.6279 -21.72266,0.0721 -21.72265,0.0721 -0.17162,-2.03022 c -0.0944,-1.11662 -0.17161,-2.54804 -0.17161,-3.18092 v -1.15071 h 20.5052 20.50521 V 109.34972 88.18306 H 90.36082 59.669158 v 21.16666 21.16667 h 1.455208 1.455208 v 1.15071 c 0,0.63288 -0.077,2.06163 -0.171115,3.175 l -0.171116,2.02429 -2.27628,-0.0239 c -1.251954,-0.0131 -2.667828,-0.13679 -3.146387,-0.2748 z M 85.06916,118.87472 v -1.05833 h 13.75833 13.75834 v 1.05833 1.05834 H 98.82749 85.06916 Z m 0,-6.35 v -1.05833 h 13.75833 13.75834 v 1.05833 1.05834 H 98.82749 85.06916 Z m -16.933336,-9.525 v -1.05833 h 22.224996 22.22501 v 1.05833 1.05834 H 90.36082 68.135824 Z"
         id="path922"
         sodipodi:nodetypes="csscsscccsscccsscccsscccccccccccssccccccccccccccccccccccccccccccc" /></g><text
       xml:space="preserve"
       style="font-size:4.9389px;line-height:1.3;font-family:'PT Sans';-inkscape-font-specification:'PT Sans';text-align:center;letter-spacing:-0.132292px;word-spacing:0px;text-anchor:middle;stroke-width:0.264583"
       x="132.55153"
       y="39.360718"
       id="text1885"><tspan
         sodipodi:role="line"
         id="tspan1883"
         style="font-style:normal;font-variant:normal;font-weight:bold;font-stretch:normal;font-family:'Noto Sans Mono';-inkscape-font-specification:'Noto Sans Mono Bold';stroke-width:0.264583"
         x="132.48538"
         y="39.360718">https://</tspan></text><g
       id="g1066"
       transform="matrix(1.9145765,0,0,1.9145765,106.0942,-97.242465)"
       style="fill:#ffffff;fill-opacity:1"><path
         d="m 37.225063,66.594068 a 1.8941029,1.8941029 0 0 0 -1.889489,1.894052 1.8941029,1.8941029 0 0 0 1.221587,1.77071 c -2.404839,0.169132 -2.39341,1.332148 -2.39341,3.720515 h 3.065872 3.065876 c 0,-2.388367 0.01142,-3.551383 -2.393406,-3.720515 a 1.8941029,1.8941029 0 0 0 1.221583,-1.77071 1.8941029,1.8941029 0 0 0 -1.894053,-1.894052 1.8941029,1.8941029 0 0 0 -0.0046,0 z"
         style="fill:#ffffff;stroke:#000000;stroke-width:0.547177;stroke-linecap:round;stroke-linejoin:round;stroke-miterlimit:4;stroke-dasharray:none;stroke-opacity:1;fill-opacity:1"
         id="path4070" /></g><text
       xml:space="preserve"
       style="font-size:4.9389px;line-height:1.3;font-family:'PT Sans';-inkscape-font-specification:'PT Sans';text-align:center;letter-spacing:-0.132292px;word-spacing:0px;text-anchor:middle;stroke-width:0.264583"
       x="41.464661"
       y="41.919476"
       id="text3960"><tspan
         sodipodi:role="line"
         id="tspan3958"
         style="stroke-width:0.264583"
         x="41.464661"
         y="41.919476"></tspan><tspan
         sodipodi:role="line"
         style="stroke-width:0.264583"
         id="tspan3962"
         x="41.464661"
         y="48.340046" /></text></g></svg>
